<?xml version="1.0" standalone="no"?>
<!DOCTYPE svg PUBLIC "-//W3C//DTD SVG 20010904//EN"
 "http://www.w3.org/TR/2001/REC-SVG-20010904/DTD/svg10.dtd">
<svg version="1.0" xmlns="http://www.w3.org/2000/svg"
 width="200.000000pt" height="200.000000pt" viewBox="0 0 200.000000 200.000000"
 preserveAspectRatio="xMidYMid meet">

<g transform="translate(0.000000,200.000000) scale(0.100000,-0.100000)"
fill="#000000" stroke="none">
<path d="M920 1669 c-104 -26 -183 -67 -265 -137 -257 -216 -326 -549 -177
-852 38 -78 60 -109 127 -175 142 -141 265 -195 457 -203 144 -5 235 13 348
69 93 47 186 127 195 168 7 34 -13 88 -43 114 -11 10 -38 21 -59 24 -34 4 -48
-1 -118 -49 -104 -71 -152 -89 -251 -95 -99 -7 -166 7 -256 54 -275 143 -329
515 -106 737 101 101 215 143 357 133 99 -7 131 -17 221 -72 41 -24 86 -45 98
-45 61 0 122 57 122 115 0 60 -48 108 -168 169 -131 66 -330 85 -482 45z"/>
</g>
</svg>
